<svg id="visual" viewBox="0 0 960 540" width="960" height="540" xmlns="http://www.w3.org/2000/svg" xmlns:xlink="http://www.w3.org/1999/xlink" version="1.1"><path d="M0 33L40 34.8C80 36.7 160 40.3 240 41.3C320 42.3 400 40.7 480 34.3C560 28 640 17 720 22.3C800 27.7 880 49.3 920 60.2L960 71L960 0L920 0C880 0 800 0 720 0C640 0 560 0 480 0C400 0 320 0 240 0C160 0 80 0 40 0L0 0Z" fill="#f1f1f1"></path><path d="M0 87L40 92.5C80 98 160 109 240 107.3C320 105.7 400 91.3 480 80.5C560 69.7 640 62.3 720 72.2C800 82 880 109 920 122.5L960 136L960 69L920 58.2C880 47.3 800 25.7 720 20.3C640 15 560 26 480 32.3C400 38.7 320 40.3 240 39.3C160 38.3 80 34.7 40 32.8L0 31Z" fill="#f3e3e2"></path><path d="M0 114L40 121.3C80 128.7 160 143.3 240 142.5C320 141.7 400 125.3 480 119C560 112.7 640 116.3 720 125.3C800 134.3 880 148.7 920 155.8L960 163L960 134L920 120.5C880 107 800 80 720 70.2C640 60.3 560 67.7 480 78.5C400 89.3 320 103.7 240 105.3C160 107 80 96 40 90.5L0 85Z" fill="#f5d6d4"></path><path d="M0 131L40 138.2C80 145.3 160 159.7 240 158.7C320 157.7 400 141.3 480 133.2C560 125 640 125 720 133.2C800 141.3 880 157.7 920 165.8L960 174L960 161L920 153.8C880 146.7 800 132.3 720 123.3C640 114.3 560 110.7 480 117C400 123.3 320 139.7 240 140.5C160 141.3 80 126.7 40 119.3L0 112Z" fill="#f6c8c5"></path><path d="M0 179L40 180C80 181 160 183 240 178.5C320 174 400 163 480 169.2C560 175.3 640 198.7 720 204.2C800 209.7 880 197.3 920 191.2L960 185L960 172L920 163.8C880 155.7 800 139.3 720 131.2C640 123 560 123 480 131.2C400 139.3 320 155.7 240 156.7C160 157.7 80 143.3 40 136.2L0 129Z" fill="#f6bab7"></path><path d="M0 179L40 183.5C80 188 160 197 240 199.7C320 202.3 400 198.7 480 204.2C560 209.7 640 224.3 720 229.8C800 235.3 880 231.7 920 229.8L960 228L960 183L920 189.2C880 195.3 800 207.7 720 202.2C640 196.7 560 173.3 480 167.2C400 161 320 172 240 176.5C160 181 80 179 40 178L0 177Z" fill="#f6aca9"></path><path d="M0 271L40 270.2C80 269.3 160 267.7 240 274.8C320 282 400 298 480 303.3C560 308.7 640 303.3 720 295.3C800 287.3 880 276.7 920 271.3L960 266L960 226L920 227.8C880 229.7 800 233.3 720 227.8C640 222.3 560 207.7 480 202.2C400 196.7 320 200.3 240 197.7C160 195 80 186 40 181.5L0 177Z" fill="#f59e9b"></path><path d="M0 341L40 332C80 323 160 305 240 307.7C320 310.3 400 333.7 480 343.7C560 353.7 640 350.3 720 336C800 321.7 880 296.3 920 283.7L960 271L960 264L920 269.3C880 274.7 800 285.3 720 293.3C640 301.3 560 306.7 480 301.3C400 296 320 280 240 272.8C160 265.7 80 267.3 40 268.2L0 269Z" fill="#f3908e"></path><path d="M0 525L40 507C80 489 160 453 240 454.8C320 456.7 400 496.3 480 516.2C560 536 640 536 720 532.3C800 528.7 880 521.3 920 517.7L960 514L960 269L920 281.7C880 294.3 800 319.7 720 334C640 348.3 560 351.7 480 341.7C400 331.7 320 308.3 240 305.7C160 303 80 321 40 330L0 339Z" fill="#f18181"></path><path d="M0 541L40 541C80 541 160 541 240 541C320 541 400 541 480 541C560 541 640 541 720 541C800 541 880 541 920 541L960 541L960 512L920 515.7C880 519.3 800 526.7 720 530.3C640 534 560 534 480 514.2C400 494.3 320 454.7 240 452.8C160 451 80 487 40 505L0 523Z" fill="#ee7274"></path></svg>